<?xml version="1.0" standalone="no"?>
<!DOCTYPE svg PUBLIC "-//W3C//DTD SVG 20010904//EN"
 "http://www.w3.org/TR/2001/REC-SVG-20010904/DTD/svg10.dtd">
<svg version="1.0" xmlns="http://www.w3.org/2000/svg"
 width="542.000000pt" height="542.000000pt" viewBox="0 0 542.000000 542.000000"
 preserveAspectRatio="xMidYMid meet">
<metadata>
Created by potrace 1.14, written by Peter Selinger 2001-2017
</metadata>
<g transform="translate(0.000000,542.000000) scale(0.100000,-0.100000)"
fill="#000000" stroke="none">
<path d="M2744 4462 c-22 -16 -384 -457 -506 -617 -156 -206 -276 -438 -313
-609 -54 -246 49 -556 247 -743 158 -148 333 -221 554 -230 255 -11 459 70
639 252 192 194 280 469 231 715 -52 253 -208 503 -634 1012 -171 205 -199
233 -218 220z m102 -201 c445 -531 605 -774 665 -1012 66 -257 -43 -560 -264
-739 -115 -93 -300 -170 -410 -170 -36 0 -38 2 -35 27 3 25 8 28 73 39 210 36
401 186 505 397 62 125 72 170 40 187 -30 16 -48 -2 -76 -80 -32 -88 -81 -165
-155 -244 -97 -103 -211 -165 -351 -190 l-38 -7 0 217 0 218 104 -102 c57 -56
110 -102 118 -102 18 0 38 20 38 39 0 20 -280 301 -300 301 -20 0 -300 -280
-300 -300 0 -20 19 -40 38 -40 8 0 61 46 118 102 l104 102 0 -218 0 -217 -37
7 c-141 25 -255 87 -352 190 -75 80 -123 156 -156 246 -26 72 -51 95 -80 75
-26 -20 -15 -66 46 -186 105 -212 317 -374 518 -399 52 -6 56 -9 59 -34 3 -26
1 -28 -35 -28 -57 0 -186 36 -257 72 -282 141 -447 412 -433 713 11 251 164
518 581 1013 66 79 134 162 150 183 17 22 33 38 36 37 4 -2 43 -45 86 -97z"/>
<path d="M2601 3679 c-77 -77 -141 -147 -141 -154 0 -16 27 -45 42 -45 5 0 66
55 134 122 l124 122 124 -122 c67 -67 128 -122 134 -122 15 0 42 29 42 44 0
20 -279 296 -299 296 -10 0 -82 -63 -160 -141z"/>
<path d="M2603 3418 c-79 -78 -143 -150 -143 -160 0 -15 27 -38 46 -38 4 0 63
55 131 122 l123 122 123 -122 c68 -67 127 -122 131 -122 19 0 46 23 46 38 0
22 -272 296 -297 300 -12 2 -68 -47 -160 -140z"/>
<path d="M2602 3157 c-78 -78 -142 -150 -142 -159 0 -16 27 -38 46 -38 4 0 63
55 131 122 l123 122 123 -122 c68 -67 127 -122 131 -122 19 0 46 22 46 38 0
21 -279 302 -300 302 -9 0 -79 -64 -158 -143z"/>
<path d="M1802 2988 c-18 -18 -14 -67 13 -162 102 -351 385 -612 750 -693 104
-23 319 -20 415 5 361 95 626 346 725 686 29 102 32 148 9 167 -28 23 -48 -3
-71 -92 -45 -178 -122 -318 -238 -435 -333 -335 -850 -363 -1217 -68 -81 65
-152 148 -209 245 -44 74 -109 246 -109 289 0 29 -25 70 -44 70 -6 0 -17 -5
-24 -12z"/>
<path d="M985 1688 c-3 -8 -4 -83 -3 -168 l3 -155 53 -3 52 -3 0 45 0 46 110
0 c126 0 160 11 180 60 20 48 8 126 -24 158 -26 27 -28 27 -196 30 -136 3
-171 1 -175 -10z m283 -77 c8 -5 12 -22 10 -42 l-3 -34 -92 -3 -93 -3 0 46 0
45 83 0 c45 0 88 -4 95 -9z"/>
<path d="M1447 1694 c-4 -4 -7 -81 -7 -171 l0 -164 53 3 52 3 0 165 0 165 -45
3 c-25 2 -49 0 -53 -4z"/>
<path d="M1607 1693 c-4 -3 -7 -80 -7 -170 l0 -164 53 3 52 3 0 113 c0 61 3
111 8 109 4 -1 47 -52 95 -112 l87 -110 78 -3 c48 -2 77 1 77 8 0 5 1 78 1
160 0 83 -1 155 -1 161 0 6 -19 9 -47 7 l-48 -3 2 -110 c0 -60 -1 -114 -4
-118 -3 -4 -47 46 -100 112 l-94 121 -73 0 c-40 0 -76 -3 -79 -7z"/>
<path d="M2100 1660 l0 -40 181 0 180 0 -3 38 -3 37 -177 3 -178 2 0 -40z"/>
<path d="M2610 1693 c0 -4 30 -81 67 -170 l67 -163 67 0 66 0 32 99 c17 54 31
104 31 110 0 6 4 11 8 11 4 0 24 -48 43 -107 l34 -108 69 0 70 0 62 155 c35
85 63 161 64 168 0 8 -15 12 -44 12 -24 0 -48 -6 -54 -12 -5 -7 -27 -60 -48
-118 -21 -58 -39 -107 -41 -110 -7 -9 -23 26 -54 120 -18 52 -36 101 -42 108
-5 7 -32 12 -63 12 l-53 0 -38 -120 c-21 -66 -41 -120 -44 -120 -3 0 -27 53
-52 118 l-45 117 -51 3 c-28 2 -51 -1 -51 -5z"/>
<path d="M3405 1693 c-10 -8 -185 -318 -185 -328 0 -3 24 -5 53 -5 l54 0 62
118 c35 64 67 121 71 126 5 4 18 -11 30 -35 12 -24 43 -81 68 -126 l46 -83 53
0 c29 0 53 4 53 9 0 5 -39 80 -88 167 l-87 159 -60 3 c-33 1 -65 -1 -70 -5z"/>
<path d="M3630 1690 c0 -5 13 -31 28 -57 16 -27 57 -99 92 -161 l62 -113 65 3
65 3 27 50 c58 106 141 269 141 277 0 4 -23 8 -50 8 -58 0 -55 4 -130 -149
-25 -50 -49 -90 -54 -88 -5 2 -35 50 -68 107 -32 57 -64 110 -70 117 -12 15
-108 18 -108 3z"/>
<path d="M4157 1694 c-4 -4 -7 -22 -7 -41 l0 -33 181 0 180 0 -3 38 -3 37
-171 3 c-93 1 -173 -1 -177 -4z"/>
<path d="M2100 1460 l0 -100 180 0 180 0 0 40 0 40 -131 0 -130 0 3 28 3 27
115 2 c113 1 114 1 121 26 4 14 4 28 1 31 -3 3 -81 6 -174 6 l-168 0 0 -100z"/>
<path d="M4150 1460 l0 -100 183 2 182 3 0 35 0 35 -130 5 -130 5 0 25 0 25
110 2 c61 1 116 2 123 3 7 0 12 13 12 30 l0 30 -175 0 -175 0 0 -100z"/>
<path d="M982 1138 l3 -93 100 0 c93 0 100 1 100 20 0 18 -8 20 -73 23 -96 4
-95 26 1 30 50 2 67 7 67 17 0 10 -18 15 -67 17 -53 2 -68 6 -68 18 0 12 14
15 65 16 58 1 65 3 68 23 3 20 0 21 -98 21 l-101 0 3 -92z"/>
<path d="M1210 1134 l0 -95 28 3 c26 3 27 6 30 61 2 32 7 57 11 55 4 -2 28
-28 53 -58 39 -49 49 -55 86 -58 l42 -3 0 95 c0 95 0 96 -25 96 -23 0 -24 -3
-27 -67 l-3 -67 -53 67 c-51 65 -54 67 -97 67 l-45 0 0 -96z"/>
<path d="M1490 1135 l0 -95 101 0 c98 0 100 0 97 23 -3 20 -9 22 -70 25 -52 2
-68 6 -68 17 0 12 15 15 66 15 56 0 65 2 62 17 -3 14 -15 17 -68 18 -51 0 -65
3 -65 15 0 11 14 15 60 17 33 1 66 2 73 2 6 1 12 10 12 21 0 19 -7 20 -100 20
l-100 0 0 -95z"/>
<path d="M1719 1225 c-1 -3 -1 -16 -1 -30 0 -152 1 -155 27 -155 20 0 25 5 25
25 0 24 3 25 54 25 49 0 55 -2 58 -22 2 -17 11 -24 31 -26 24 -3 27 0 27 25 0
16 -6 35 -12 42 -10 11 -10 14 0 18 21 8 15 81 -7 93 -19 10 -200 15 -202 5z
m162 -51 c19 -23 0 -34 -57 -34 -46 0 -54 3 -54 18 0 10 2 21 5 24 11 11 95 5
106 -8z"/>
<path d="M1988 1218 c-11 -8 -17 -31 -19 -63 -4 -79 -1 -91 26 -103 31 -15
144 -16 179 -2 23 8 26 15 26 55 l0 46 -62 -3 c-48 -2 -63 -7 -63 -18 0 -10
12 -16 33 -18 17 -2 32 -7 32 -12 0 -13 -42 -19 -80 -12 -31 7 -35 11 -38 44
-5 56 20 63 141 42 29 -5 37 -3 37 9 0 35 -29 47 -114 47 -50 0 -88 -5 -98
-12z"/>
<path d="M2230 1225 c0 -3 23 -33 51 -67 37 -45 49 -67 47 -87 -3 -22 1 -26
25 -29 25 -3 27 -1 27 31 0 26 10 46 43 83 23 27 45 51 50 52 19 9 4 22 -25
22 -26 0 -40 -8 -65 -37 l-32 -38 -31 38 c-23 27 -39 37 -61 37 -16 0 -29 -2
-29 -5z"/>
<path d="M2564 1217 c-3 -8 -4 -49 -2 -93 3 -78 3 -79 31 -82 23 -3 27 0 27
22 0 25 2 26 68 26 80 0 102 15 102 72 0 57 -22 68 -129 68 -67 0 -93 -4 -97
-13z m144 -33 c13 -4 22 -14 22 -25 0 -16 -8 -19 -55 -19 -48 0 -55 3 -55 19
0 28 37 38 88 25z"/>
<path d="M2836 1145 c-25 -47 -46 -89 -46 -95 0 -18 46 -11 65 10 13 15 31 20
65 20 34 0 52 -5 65 -20 19 -21 65 -28 65 -9 0 6 -21 49 -46 95 -45 83 -46 84
-84 84 -38 0 -39 -1 -84 -85z m110 -20 c-3 -12 -56 -17 -56 -5 0 5 5 21 12 35
l12 26 18 -23 c9 -13 16 -27 14 -33z"/>
<path d="M3080 1135 c0 -94 0 -95 24 -95 18 0 25 6 28 23 3 20 9 22 58 22 48
0 55 -2 55 -20 0 -14 8 -21 28 -23 24 -3 27 0 27 25 0 16 -5 34 -11 40 -8 8
-8 13 0 17 14 9 14 61 1 87 -10 17 -22 19 -110 19 l-100 0 0 -95z m161 38 c20
-20 -1 -33 -57 -33 -46 0 -54 3 -54 18 0 10 2 21 5 23 9 10 94 4 106 -8z"/>
<path d="M3323 1215 c-8 -22 1 -28 44 -29 l38 -1 3 -73 c3 -73 3 -73 30 -70
27 3 27 4 24 71 -2 37 0 68 5 68 4 1 23 2 40 3 38 3 48 10 40 31 -9 22 -215
22 -224 0z"/>
<path d="M3569 1198 c-1 -18 -2 -60 -3 -93 -1 -58 0 -60 27 -63 27 -3 27 -3
27 57 0 34 4 61 8 61 5 0 31 -27 57 -60 47 -58 51 -61 89 -58 l41 3 0 90 c0
89 0 90 -25 90 -24 0 -25 -3 -25 -57 0 -33 -4 -58 -10 -58 -5 0 -30 27 -53 60
-42 58 -45 60 -88 60 -43 0 -44 -1 -45 -32z"/>
<path d="M3842 1138 l3 -93 100 0 c93 0 100 1 100 20 0 18 -8 20 -73 23 -96 4
-95 26 1 30 51 2 67 6 67 17 0 8 -6 15 -12 16 -7 0 -38 1 -68 2 -41 2 -55 6
-55 17 0 12 15 16 68 18 59 3 67 5 67 22 0 19 -7 20 -100 20 l-101 0 3 -92z"/>
<path d="M4072 1138 c3 -92 3 -93 28 -93 18 0 26 6 28 23 3 21 8 23 55 20 46
-3 52 -6 55 -26 3 -19 9 -23 30 -20 21 2 26 8 24 23 -4 24 -4 60 -1 102 4 55
-11 63 -123 63 l-99 0 3 -92z m152 46 c9 -3 16 -15 16 -25 0 -16 -8 -19 -55
-19 -52 0 -55 1 -55 25 0 22 4 25 39 25 22 0 46 -3 55 -6z"/>
<path d="M4338 1219 c-21 -12 -25 -71 -5 -87 6 -5 42 -12 80 -15 71 -4 83 -9
72 -26 -8 -14 -102 -14 -110 -1 -3 6 -17 10 -31 10 -17 0 -24 -5 -24 -20 0
-29 30 -40 107 -40 82 0 113 17 113 60 0 40 -31 57 -105 59 -65 2 -70 4 -60
20 8 14 92 14 100 1 3 -5 17 -10 31 -10 30 0 33 34 5 50 -25 13 -151 13 -173
-1z"/>
</g>
</svg>
